<?xml version="1.0" encoding="utf-8"?>
<!-- Generator: Adobe Illustrator 16.0.0, SVG Export Plug-In . SVG Version: 6.00 Build 0)  -->
<!DOCTYPE svg PUBLIC "-//W3C//DTD SVG 1.1//EN" "http://www.w3.org/Graphics/SVG/1.1/DTD/svg11.dtd">
<svg version="1.1" id="Layer_1" xmlns="http://www.w3.org/2000/svg" xmlns:xlink="http://www.w3.org/1999/xlink" x="0px" y="0px"
	 width="820px" height="952px" viewBox="0 0 820 952" enable-background="new 0 0 820 952" xml:space="preserve">
<g>
	<polygon fill="#F6F6F6" points="410.699,924.5 417.662,921.551 425.366,918.021 433.177,914.221 442.712,909.332 458.906,900.44 
		475.176,890.79 492.008,880.054 505.441,870.924 517.326,862.415 529.428,853.323 540.177,844.862 549.428,837.278 
		562.827,825.768 576.448,813.393 588.479,801.848 601.385,788.764 609.259,780.396 616.475,772.457 623.923,763.969 
		634.676,751.149 642.531,741.326 651.605,729.449 659.016,719.304 667.617,706.95 673.851,697.586 680.509,687.156 
		684.299,681.007 691.439,668.964 697.448,658.324 703.379,647.319 711.005,632.333 716.823,620.176 722.388,607.888 
		728.909,592.508 733.25,581.61 736.785,572.266 741.985,557.676 746.441,544.199 750.365,531.641 753.948,518.929 757.308,506.275 
		760.887,491.567 764.072,477.121 766.394,465.565 768.541,453.862 770.535,441.862 772.536,428.381 774.286,414.896 
		775.598,403.312 776.719,391.833 777.862,377.749 778.979,360.396 779.395,349.209 780,332.9 780,30.9 41.101,30.9 41.101,332.9 
		41.706,349.209 42.122,360.396 43.238,377.749 44.382,391.833 45.503,403.312 46.812,414.896 48.562,428.381 50.562,441.862 
		52.56,453.862 54.707,465.565 57.028,477.121 60.214,491.567 63.793,506.275 67.15,518.929 70.732,531.641 74.659,544.199 
		79.115,557.676 84.312,572.266 87.851,581.61 92.188,592.508 98.713,607.888 104.275,620.176 110.096,632.333 117.722,647.319 
		123.651,658.324 129.661,668.964 136.802,681.007 140.592,687.156 147.25,697.586 153.48,706.95 162.085,719.304 169.495,729.449 
		178.568,741.326 186.425,751.149 197.178,763.969 204.626,772.457 211.842,780.396 219.716,788.764 232.622,801.848 
		244.651,813.393 258.271,825.768 271.673,837.278 280.924,844.862 291.673,853.323 303.771,862.415 315.658,870.924 
		329.093,880.054 345.925,890.79 362.194,900.44 378.389,909.332 387.924,914.221 395.731,918.021 403.438,921.551 	"/>
</g>
<polygon fill="#333333" stroke="#000000" stroke-width="3" stroke-miterlimit="10" points="498.098,337.802 498.098,30.943 
	320.116,30.943 320.116,337.801 40.182,337.801 40.605,349.209 41.021,360.396 42.137,377.749 43.281,391.833 44.402,403.312 
	45.711,414.896 47.461,428.381 49.461,441.862 51.459,453.862 53.606,465.565 55.927,477.121 59.113,491.567 62.692,506.275 
	65.228,515.833 320.116,515.833 320.116,874.701 327.991,880.054 344.823,890.79 361.093,900.44 377.287,909.332 386.823,914.221 
	394.63,918.021 402.336,921.551 409.599,924.5 416.562,921.551 424.268,918.021 432.074,914.221 441.611,909.332 457.805,900.44 
	474.073,890.79 490.906,880.054 498.092,875.171 498.092,515.838 753.67,515.838 756.205,506.275 759.783,491.567 762.971,477.121 
	765.293,465.565 767.439,453.862 769.438,441.862 771.438,428.381 773.188,414.896 774.494,403.312 775.615,391.833 
	776.762,377.749 777.877,360.396 778.293,349.209 778.717,337.802 "/>
<g>
	<polygon fill="none" stroke="#000000" stroke-width="5" stroke-miterlimit="10" points="410.699,924.5 417.662,921.551 
		425.366,918.021 433.177,914.221 442.712,909.332 458.906,900.44 475.176,890.79 492.008,880.054 505.441,870.924 517.326,862.415 
		529.428,853.323 540.177,844.862 549.428,837.278 562.827,825.768 576.448,813.393 588.479,801.848 601.385,788.764 
		609.259,780.396 616.475,772.457 623.923,763.969 634.676,751.149 642.531,741.326 651.605,729.449 659.016,719.304 
		667.617,706.95 673.851,697.586 680.509,687.156 684.299,681.007 691.439,668.964 697.448,658.324 703.379,647.319 
		711.005,632.333 716.823,620.176 722.388,607.888 728.909,592.508 733.25,581.61 736.785,572.266 741.985,557.676 746.441,544.199 
		750.365,531.641 753.948,518.929 757.308,506.275 760.887,491.567 764.072,477.121 766.394,465.565 768.541,453.862 
		770.535,441.862 772.536,428.381 774.286,414.896 775.598,403.312 776.719,391.833 777.862,377.749 778.979,360.396 
		779.395,349.209 780,332.9 780,30.9 41.101,30.9 41.101,332.9 41.706,349.209 42.122,360.396 43.238,377.749 44.382,391.833 
		45.503,403.312 46.812,414.896 48.562,428.381 50.562,441.862 52.56,453.862 54.707,465.565 57.028,477.121 60.214,491.567 
		63.793,506.275 67.15,518.929 70.732,531.641 74.659,544.199 79.115,557.676 84.312,572.266 87.851,581.61 92.188,592.508 
		98.713,607.888 104.275,620.176 110.096,632.333 117.722,647.319 123.651,658.324 129.661,668.964 136.802,681.007 
		140.592,687.156 147.25,697.586 153.48,706.95 162.085,719.304 169.495,729.449 178.568,741.326 186.425,751.149 197.178,763.969 
		204.626,772.457 211.842,780.396 219.716,788.764 232.622,801.848 244.651,813.393 258.271,825.768 271.673,837.278 
		280.924,844.862 291.673,853.323 303.771,862.415 315.658,870.924 329.093,880.054 345.925,890.79 362.194,900.44 378.389,909.332 
		387.924,914.221 395.731,918.021 403.438,921.551 	"/>
</g>
</svg>
