<?xml version="1.0" encoding="UTF-8" standalone="no"?>
<!-- Generator: Adobe Illustrator 16.0.0, SVG Export Plug-In . SVG Version: 6.00 Build 0)  -->

<svg
   xmlns:dc="http://purl.org/dc/elements/1.1/"
   xmlns:cc="http://creativecommons.org/ns#"
   xmlns:rdf="http://www.w3.org/1999/02/22-rdf-syntax-ns#"
   xmlns:svg="http://www.w3.org/2000/svg"
   xmlns="http://www.w3.org/2000/svg"
   xmlns:sodipodi="http://sodipodi.sourceforge.net/DTD/sodipodi-0.dtd"
   xmlns:inkscape="http://www.inkscape.org/namespaces/inkscape"
   sodipodi:docname="Guines.svg"
   inkscape:version="0.48.4 r9939"
   xml:space="preserve"
   enable-background="new 0 0 820 952"
   viewBox="0 0 820 952"
   height="952px"
   width="820px"
   y="0px"
   x="0px"
   id="Layer_1"
   version="1.1"><sodipodi:namedview
   pagecolor="#ffffff"
   bordercolor="#666666"
   borderopacity="1"
   objecttolerance="10"
   gridtolerance="10"
   guidetolerance="10"
   inkscape:pageopacity="0"
   inkscape:pageshadow="2"
   inkscape:window-width="640"
   inkscape:window-height="480"
   id="namedview23"
   showgrid="false"
   inkscape:zoom="0.24789916"
   inkscape:cx="410"
   inkscape:cy="476"
   inkscape:window-x="0"
   inkscape:window-y="0"
   inkscape:window-maximized="0"
   inkscape:current-layer="Layer_1" /><metadata
   id="metadata27"><rdf:RDF><cc:Work
       rdf:about=""><dc:format>image/svg+xml</dc:format><dc:type
         rdf:resource="http://purl.org/dc/dcmitype/StillImage" /></cc:Work></rdf:RDF></metadata><defs
   id="defs25" />
<path
   fill="#f2bc51"
   d="M779.758,30.943c0,0,0,270.779,0,286.666c0,463.829-369.289,606.948-369.289,606.948  S41.742,781.438,41.742,317.608c0-15.886,0-286.666,0-286.666L779.758,30.943L779.758,30.943z"
   id="path3" />
<g
   id="g5">
	<path
   fill="#0d6793"
   stroke="#1d1d1b"
   stroke-width="3"
   stroke-linejoin="round"
   stroke-miterlimit="10"
   d="M733.48,581.004   l3.305-8.739l5.199-14.589l4.456-13.477l3.925-12.561l3.583-12.712l1.603-6.029c0.562-2.74,1.117-5.218,1.664-7.366l-23.737,29.276   L733.48,581.004z"
   id="path7" />
	<polygon
   fill="#0d6793"
   stroke="#1d1d1b"
   stroke-width="3"
   stroke-linejoin="round"
   stroke-miterlimit="10"
   points="   733.476,87.808 733.493,197.346 687.39,254.411 779.759,254.411 779.759,31.159 779.579,30.942  "
   id="polygon9" />
	<path
   fill="#0d6793"
   stroke="#1d1d1b"
   stroke-width="3"
   stroke-linejoin="round"
   stroke-miterlimit="10"
   d="M766.796,461.966   l-33.045-41.183l-0.016-109.537l-46.403-56.866l-46.105,56.866l0.019,109.538l-46.069,57.022l-45.757-57.022l-0.015-109.538   l-46.38-56.834h184.27L641.5,197.346l-0.016-109.538l-46.405-56.866l-46.104,56.866l0.019,109.538l-46.069,57.022l-45.757-57.022   l-0.015-109.538l-46.405-56.866l-46.104,56.866l0.019,109.538l-46.079,57.033l-46.105,56.866l0.021,109.538l-46.071,57.022   l-45.757-57.022l-0.014-109.538l-46.381-56.834h184.27l-45.791-57.064L272.74,87.809l-46.405-56.866l-46.105,56.866l0.021,109.538   l-46.071,57.022l-45.757-57.022L88.404,87.808L41.997,30.942l-0.255,0.313V254.41h92.479l-46.079,56.834l0.02,109.538   L54.723,462.17c0.987,5.277,2.021,10.51,3.107,15.68h352.959L365,420.783l-0.015-109.538l-46.38-56.834h184.365l-46.079,56.834   l0.019,109.538l-46.104,57.065h352.839C764.75,472.611,765.796,467.312,766.796,461.966z"
   id="path11" />
	<path
   fill="#0d6793"
   stroke="#1d1d1b"
   stroke-width="3"
   stroke-linejoin="round"
   stroke-miterlimit="10"
   d="M88.403,534.808   l-24.269-29.739c0.892,3.524,1.807,7.883,2.744,12.839l0.271,1.021l3.582,12.712l3.93,12.561l4.456,13.477l5.195,14.589   l3.539,9.347l0.556,1.395L88.403,534.808z"
   id="path13" />
	<path
   fill="#0d6793"
   stroke="#1d1d1b"
   stroke-width="3"
   stroke-linejoin="round"
   stroke-miterlimit="10"
   d="M678.286,690.191   L641.5,644.345l-0.015-109.537l-46.403-56.864l-46.105,56.864l0.019,109.537l-46.069,57.022l-45.757-57.022l-0.015-109.537   l-46.404-56.864l-46.104,56.864l0.019,109.537l-46.079,57.035l-46.105,56.864l0.012,79.702l8.436,6.915l10.749,8.461l12.098,9.092   l11.886,8.509l13.438,9.129l16.832,10.737l16.268,9.65l16.196,8.892l9.535,4.888l7.806,3.803l7.708,3.528l6.987,2.839L365,867.783   l-0.015-109.537l-46.38-56.834H502.97l-46.078,56.834l0.019,109.537l-45.423,56.224c0.293-0.119,0.655-0.216,1.072-0.296l5.1-2.16   l7.705-3.528l7.812-3.803l9.535-4.888l16.191-8.892l16.271-9.65l16.832-10.737l13.432-9.129l11.886-8.509l12.104-9.092   l10.749-8.461l9.231-7.568l-0.006-79.048l-46.38-56.834h168C673.468,697.726,675.889,693.984,678.286,690.191z"
   id="path15" />
	<path
   fill="#0d6793"
   stroke="#1d1d1b"
   stroke-width="3"
   stroke-linejoin="round"
   stroke-miterlimit="10"
   d="M150.312,701.411   h168.229l-45.791-57.065l-0.015-109.537l-46.404-56.864l-46.105,56.864l0.021,109.537l-37.121,45.947   C145.499,694.051,147.894,697.76,150.312,701.411z"
   id="path17" />
</g>
<g
   id="g19">
	<polygon
   fill="none"
   stroke="#000000"
   stroke-width="5"
   stroke-miterlimit="10"
   points="410.698,924.5 417.659,921.551    425.365,918.021 433.177,914.219 442.712,909.332 458.905,900.44 475.176,890.79 492.008,880.052 505.44,870.924 517.324,862.415    529.428,853.323 540.177,844.862 549.428,837.278 562.825,825.766 576.447,813.391 588.479,801.846 601.385,788.762    609.259,780.396 616.475,772.457 623.923,763.969 634.676,751.149 642.53,741.326 651.604,729.449 659.016,719.302 667.615,706.95    673.851,697.586 680.509,687.156 684.299,681.007 691.438,668.964 697.447,658.324 703.379,647.319 711.005,632.333    716.823,620.176 722.388,607.886 728.907,592.508 733.25,581.61 736.783,572.264 741.984,557.676 746.44,544.199 750.365,531.639    753.948,518.927 757.308,506.275 760.887,491.567 764.071,477.121 766.394,465.565 768.541,453.862 770.533,441.862    772.534,428.381 774.284,414.896 775.598,403.312 776.719,391.833 777.861,377.749 778.979,360.396 779.395,349.209 780,332.9    780,30.9 41.101,30.9 41.101,332.9 41.706,349.209 42.122,360.396 43.237,377.749 44.382,391.833 45.503,403.312 46.812,414.896    48.562,428.381 50.562,441.862 52.56,453.862 54.707,465.565 57.027,477.121 60.214,491.567 63.793,506.275 67.149,518.927    70.731,531.639 74.659,544.199 79.115,557.676 84.312,572.264 87.851,581.61 92.188,592.508 98.713,607.886 104.274,620.176    110.096,632.333 117.722,647.319 123.65,658.324 129.661,668.964 136.802,681.007 140.592,687.156 147.25,697.586 153.479,706.95    162.085,719.302 169.495,729.449 178.567,741.326 186.425,751.149 197.178,763.969 204.626,772.457 211.842,780.396    219.716,788.762 232.622,801.846 244.65,813.391 258.271,825.766 271.673,837.278 280.924,844.862 291.673,853.323    303.771,862.415 315.656,870.924 329.093,880.052 345.925,890.79 362.193,900.44 378.389,909.332 387.924,914.219 395.73,918.021    403.438,921.551  "
   id="polygon21" />
</g>
</svg>