<?xml version="1.0" encoding="UTF-8" standalone="no"?>
<!-- Generator: Adobe Illustrator 16.0.0, SVG Export Plug-In . SVG Version: 6.00 Build 0)  -->

<svg
   xmlns:dc="http://purl.org/dc/elements/1.1/"
   xmlns:cc="http://creativecommons.org/ns#"
   xmlns:rdf="http://www.w3.org/1999/02/22-rdf-syntax-ns#"
   xmlns:svg="http://www.w3.org/2000/svg"
   xmlns="http://www.w3.org/2000/svg"
   xmlns:sodipodi="http://sodipodi.sourceforge.net/DTD/sodipodi-0.dtd"
   xmlns:inkscape="http://www.inkscape.org/namespaces/inkscape"
   version="1.1"
   id="Layer_1"
   x="0px"
   y="0px"
   width="820px"
   height="952px"
   viewBox="0 0 820 952"
   enable-background="new 0 0 820 952"
   xml:space="preserve"
   inkscape:version="0.48.4 r9939"
   sodipodi:docname="Ibelin.svg"><sodipodi:namedview
   pagecolor="#ffffff"
   bordercolor="#666666"
   borderopacity="1"
   objecttolerance="10"
   gridtolerance="10"
   guidetolerance="10"
   inkscape:pageopacity="0"
   inkscape:pageshadow="2"
   inkscape:window-width="640"
   inkscape:window-height="480"
   id="namedview13"
   showgrid="false"
   inkscape:zoom="0.24789916"
   inkscape:cx="410"
   inkscape:cy="476"
   inkscape:window-x="0"
   inkscape:window-y="0"
   inkscape:window-maximized="0"
   inkscape:current-layer="Layer_1" /><metadata
   id="metadata17"><rdf:RDF><cc:Work
       rdf:about=""><dc:format>image/svg+xml</dc:format><dc:type
         rdf:resource="http://purl.org/dc/dcmitype/StillImage" /></cc:Work></rdf:RDF></metadata><defs
   id="defs15" />
<g
   id="g3">
	<polygon
   fill="#f2bc51"
   points="410.7,924.5 417.663,921.551 425.366,918.021 433.177,914.221 442.712,909.332 458.906,900.44    475.176,890.79 492.008,880.054 505.441,870.924 517.326,862.415 529.428,853.323 540.177,844.862 549.428,837.278    562.827,825.768 576.448,813.393 588.479,801.848 601.385,788.764 609.259,780.396 616.475,772.457 623.923,763.969    634.676,751.149 642.531,741.326 651.605,729.449 659.016,719.304 667.617,706.95 673.851,697.586 680.509,687.156    684.299,681.007 691.439,668.964 697.448,658.324 703.379,647.319 711.005,632.333 716.823,620.176 722.388,607.888    728.909,592.508 733.25,581.61 736.785,572.266 741.985,557.676 746.441,544.199 750.365,531.641 753.948,518.929 757.308,506.275    760.887,491.567 764.072,477.121 766.394,465.565 768.541,453.862 770.535,441.862 772.536,428.381 774.286,414.896    775.598,403.312 776.719,391.833 777.862,377.749 778.979,360.396 779.395,349.209 780,332.9 780,30.9 41.101,30.9 41.101,332.9    41.706,349.209 42.122,360.396 43.238,377.749 44.382,391.833 45.503,403.312 46.812,414.896 48.562,428.381 50.562,441.862    52.56,453.862 54.707,465.565 57.028,477.121 60.214,491.567 63.793,506.275 67.15,518.929 70.732,531.641 74.659,544.199    79.115,557.676 84.312,572.266 87.851,581.61 92.188,592.508 98.713,607.888 104.275,620.176 110.096,632.333 117.722,647.319    123.651,658.324 129.661,668.964 136.802,681.007 140.592,687.156 147.25,697.586 153.48,706.95 162.085,719.304 169.495,729.449    178.568,741.326 186.425,751.149 197.178,763.969 204.626,772.457 211.842,780.396 219.716,788.764 232.622,801.848    244.651,813.393 258.271,825.768 271.673,837.278 280.924,844.862 291.673,853.323 303.771,862.415 315.659,870.924    329.093,880.054 345.925,890.79 362.194,900.44 378.389,909.332 387.924,914.221 395.731,918.021 403.438,921.551  "
   id="polygon5" />
</g>
<path
   fill="#bc2e2e"
   stroke="#000000"
   stroke-width="3"
   stroke-miterlimit="10"
   d="M772.536,428.381l1.75-13.484l1.312-11.584  l1.121-11.479l1.144-14.084l1.116-17.353l0.416-11.188L780,332.9v-53.249l-0.24-0.288h-0.002  c-19.479,14.602-135.849,84.137-305.438,84.137c0-161.321,60.663-299.014,80.287-332.559H266.439  c19.624,33.544,80.287,171.237,80.287,332.559c-168.336,0-284.082-68.214-304.981-83.798l-0.643,1.025V332.9l0.605,16.309  l0.416,11.188l1.115,17.353l1.145,14.084l1.121,11.479l1.309,11.584l1.75,13.484l2,13.481l1.998,12l2.147,11.703l2.32,11.556  l3.187,14.446l3.579,14.708l3.356,12.652l3.582,12.712l3.928,12.56l4.456,13.477l2.139,6.006c1.614,0.732-0.749,1.439,0.939,2.09  c8.868-9.277,89.838-75.354,264.531-75.354c0,198.634-58.637,315.339-79.379,343.146l4.326,3.716l9.251,7.584l10.749,8.461  l12.099,9.092l11.889,8.509l13.434,9.13l16.832,10.736l16.27,9.65l16.194,8.892l9.535,4.889l7.808,3.802l7.706,3.528l7.264,2.949  l6.963-2.949l7.703-3.528l7.811-3.802l9.535-4.889l16.193-8.892l16.271-9.65l16.832-10.736l13.434-9.13l11.886-8.509l12.102-9.092  l10.749-8.461l9.251-7.584l4.294-3.688c-20.695-27.764-79.4-144.48-79.4-343.172c176.692,0,257.646,68.061,264.811,75.646  c1.347-0.04-1.333-0.157-0.025-0.309l2.88-8.081l4.456-13.477l3.925-12.56l3.582-12.712l3.359-12.652l3.579-14.708l3.186-14.446  l2.321-11.556l2.146-11.703l1.995-12L772.536,428.381z"
   id="path7" />
<g
   id="g9">
	<polygon
   fill="none"
   stroke="#000000"
   stroke-width="5"
   stroke-miterlimit="10"
   points="410.7,924.5 417.663,921.551    425.366,918.021 433.177,914.221 442.712,909.332 458.906,900.44 475.176,890.79 492.008,880.054 505.441,870.924 517.326,862.415    529.428,853.323 540.177,844.862 549.428,837.278 562.827,825.768 576.448,813.393 588.479,801.848 601.385,788.764    609.259,780.396 616.475,772.457 623.923,763.969 634.676,751.149 642.531,741.326 651.605,729.449 659.016,719.304    667.617,706.95 673.851,697.586 680.509,687.156 684.299,681.007 691.439,668.964 697.448,658.324 703.379,647.319    711.005,632.333 716.823,620.176 722.388,607.888 728.909,592.508 733.25,581.61 736.785,572.266 741.985,557.676 746.441,544.199    750.365,531.641 753.948,518.929 757.308,506.275 760.887,491.567 764.072,477.121 766.394,465.565 768.541,453.862    770.535,441.862 772.536,428.381 774.286,414.896 775.598,403.312 776.719,391.833 777.862,377.749 778.979,360.396    779.395,349.209 780,332.9 780,30.9 41.101,30.9 41.101,332.9 41.706,349.209 42.122,360.396 43.238,377.749 44.382,391.833    45.503,403.312 46.812,414.896 48.562,428.381 50.562,441.862 52.56,453.862 54.707,465.565 57.028,477.121 60.214,491.567    63.793,506.275 67.15,518.929 70.732,531.641 74.659,544.199 79.115,557.676 84.312,572.266 87.851,581.61 92.188,592.508    98.713,607.888 104.275,620.176 110.096,632.333 117.722,647.319 123.651,658.324 129.661,668.964 136.802,681.007    140.592,687.156 147.25,697.586 153.48,706.95 162.085,719.304 169.495,729.449 178.568,741.326 186.425,751.149 197.178,763.969    204.626,772.457 211.842,780.396 219.716,788.764 232.622,801.848 244.651,813.393 258.271,825.768 271.673,837.278    280.924,844.862 291.673,853.323 303.771,862.415 315.659,870.924 329.093,880.054 345.925,890.79 362.194,900.44 378.389,909.332    387.924,914.221 395.731,918.021 403.438,921.551  "
   id="polygon11" />
</g>
</svg>