<?xml version="1.0" encoding="utf-8"?>
<!-- Generator: Adobe Illustrator 17.1.0, SVG Export Plug-In . SVG Version: 6.00 Build 0)  -->
<!DOCTYPE svg PUBLIC "-//W3C//DTD SVG 1.1//EN" "http://www.w3.org/Graphics/SVG/1.1/DTD/svg11.dtd">
<svg version="1.1" id="Layer_1" xmlns="http://www.w3.org/2000/svg" xmlns:xlink="http://www.w3.org/1999/xlink" x="0px" y="0px"
	 width="820px" height="952px" viewBox="0 0 820 952" enable-background="new 0 0 820 952" xml:space="preserve">
<g>
	<polygon fill="#F6F6F6" points="410.7,924.5 417.7,921.6 425.4,918 433.2,914.2 442.7,909.3 458.9,900.4 475.2,890.8 492,880.1 
		505.4,870.9 517.3,862.4 529.4,853.3 540.2,844.9 549.4,837.3 562.8,825.8 576.4,813.4 588.5,801.8 601.4,788.8 609.3,780.4 
		616.5,772.5 623.9,764 634.7,751.1 642.5,741.3 651.6,729.4 659,719.3 667.6,707 673.9,697.6 680.5,687.2 684.3,681 691.4,669 
		697.4,658.3 703.4,647.3 711,632.3 716.8,620.2 722.4,607.9 728.9,592.5 733.2,581.6 736.8,572.3 742,557.7 746.4,544.2 
		750.4,531.6 753.9,518.9 757.3,506.3 760.9,491.6 764.1,477.1 766.4,465.6 768.5,453.9 770.5,441.9 772.5,428.4 774.3,414.9 
		775.6,403.3 776.7,391.8 777.9,377.7 779,360.4 779.4,349.2 780,332.9 780,30.9 41.1,30.9 41.1,332.9 41.7,349.2 42.1,360.4 
		43.2,377.7 44.4,391.8 45.5,403.3 46.8,414.9 48.6,428.4 50.6,441.9 52.6,453.9 54.7,465.6 57,477.1 60.2,491.6 63.8,506.3 
		67.2,518.9 70.7,531.6 74.7,544.2 79.1,557.7 84.3,572.3 87.9,581.6 92.2,592.5 98.7,607.9 104.3,620.2 110.1,632.3 117.7,647.3 
		123.7,658.3 129.7,669 136.8,681 140.6,687.2 147.2,697.6 153.5,707 162.1,719.3 169.5,729.4 178.6,741.3 186.4,751.1 197.2,764 
		204.6,772.5 211.8,780.4 219.7,788.8 232.6,801.8 244.7,813.4 258.3,825.8 271.7,837.3 280.9,844.9 291.7,853.3 303.8,862.4 
		315.7,870.9 329.1,880.1 345.9,890.8 362.2,900.4 378.4,909.3 387.9,914.2 395.7,918 403.4,921.6 	"/>
</g>
<polygon fill="#BC2E2E" stroke="#000000" stroke-width="3" stroke-miterlimit="10" points="41.1,332.9 41.4,340.9 779.7,340.9 
	780,332.9 780,30.9 41.1,30.9 "/>
<g>
	<polygon fill="none" stroke="#000000" stroke-width="5" stroke-miterlimit="10" points="410.7,924.5 417.7,921.6 425.4,918 
		433.2,914.2 442.7,909.3 458.9,900.4 475.2,890.8 492,880.1 505.4,870.9 517.3,862.4 529.4,853.3 540.2,844.9 549.4,837.3 
		562.8,825.8 576.4,813.4 588.5,801.8 601.4,788.8 609.3,780.4 616.5,772.5 623.9,764 634.7,751.1 642.5,741.3 651.6,729.4 
		659,719.3 667.6,707 673.9,697.6 680.5,687.2 684.3,681 691.4,669 697.4,658.3 703.4,647.3 711,632.3 716.8,620.2 722.4,607.9 
		728.9,592.5 733.2,581.6 736.8,572.3 742,557.7 746.4,544.2 750.4,531.6 753.9,518.9 757.3,506.3 760.9,491.6 764.1,477.1 
		766.4,465.6 768.5,453.9 770.5,441.9 772.5,428.4 774.3,414.9 775.6,403.3 776.7,391.8 777.9,377.7 779,360.4 779.4,349.2 
		780,332.9 780,30.9 41.1,30.9 41.1,332.9 41.7,349.2 42.1,360.4 43.2,377.7 44.4,391.8 45.5,403.3 46.8,414.9 48.6,428.4 
		50.6,441.9 52.6,453.9 54.7,465.6 57,477.1 60.2,491.6 63.8,506.3 67.2,518.9 70.7,531.6 74.7,544.2 79.1,557.7 84.3,572.3 
		87.9,581.6 92.2,592.5 98.7,607.9 104.3,620.2 110.1,632.3 117.7,647.3 123.7,658.3 129.7,669 136.8,681 140.6,687.2 147.2,697.6 
		153.5,707 162.1,719.3 169.5,729.4 178.6,741.3 186.4,751.1 197.2,764 204.6,772.5 211.8,780.4 219.7,788.8 232.6,801.8 
		244.7,813.4 258.3,825.8 271.7,837.3 280.9,844.9 291.7,853.3 303.8,862.4 315.7,870.9 329.1,880.1 345.9,890.8 362.2,900.4 
		378.4,909.3 387.9,914.2 395.7,918 403.4,921.6 	"/>
</g>
</svg>
